# This file uses centimeters as units for non-parametric coordinates.

mtllib ChurchWalls.mtl
g default
v -8.000000 0.000000 3.939770
v 8.000000 0.000000 3.939770
v -8.000000 10.000000 3.939770
v 8.000000 10.000000 3.939770
v -8.000000 10.000000 -9.000000
v 8.000000 10.000000 -9.000000
v -8.000000 0.000000 -9.000000
v 8.000000 0.000000 -9.000000
v 0.000000 14.000002 3.939770
v 0.000000 0.000000 -9.000000
v 0.000000 0.000000 3.939770
v -8.000000 10.213432 -9.000000
v 0.000000 14.149030 -9.000513
v 8.000000 10.213432 -9.000000
vt 0.055148 0.358469
vt 0.055148 0.087733
vt 0.264376 0.087733
vt 0.264376 0.358469
vt 0.055148 0.963970
vt 0.055148 0.693234
vt 0.264376 0.693234
vt 0.264376 0.963970
vt 0.407569 0.458098
vt 0.407569 0.229965
vt 0.776566 0.229965
vt 0.776566 0.458098
vt 0.407569 0.001833
vt 0.776566 0.001833
vt 0.055148 0.525852
vt 0.348067 0.525852
vt 0.998008 0.690221
vt 0.998008 0.918354
vt 0.706756 0.918354
vt 0.594527 0.690221
vt 0.998008 0.462089
vt 0.706756 0.462089
vn 0.000000 0.000000 1.000000
vn 0.000000 0.000000 1.000000
vn 0.000000 0.000000 1.000000
vn 0.000000 0.000000 1.000000
vn 0.000000 -1.000000 0.000000
vn 0.000000 -1.000000 0.000000
vn 0.000000 -1.000000 0.000000
vn 0.000000 -1.000000 0.000000
vn 1.000000 0.000000 0.000000
vn 1.000000 0.000000 0.000000
vn 1.000000 0.000000 0.000000
vn 1.000000 0.000000 0.000000
vn -1.000000 0.000000 0.000000
vn -1.000000 0.000000 0.000000
vn -1.000000 0.000000 0.000000
vn -1.000000 0.000000 0.000000
vn 0.000000 -1.000000 0.000000
vn 0.000000 -1.000000 0.000000
vn 0.000000 0.000000 1.000000
vn 0.000000 0.000000 1.000000
vn 0.000000 -0.000021 -1.000000
vn -0.000027 -0.000021 -1.000000
vn -0.000027 -0.000021 -1.000000
vn 0.000000 -0.000021 -1.000000
vn 0.000027 -0.000021 -1.000000
vn 0.000027 -0.000021 -1.000000
s 1
g polySurface589 Church
usemtl initialShadingGroup
f 1/6/1 11/15/2 9/16/3 3/7/4
s 2
f 7/9/5 10/10/6 11/11/7 1/12/8
s off
f 2/1/9 8/2/10 6/3/11 4/4/12
f 7/5/13 1/6/14 3/7/15 5/8/16
s 2
f 11/11/7 10/10/6 8/13/17 2/14/18
s 1
f 9/16/3 11/15/2 2/1/19 4/4/20
s 3
f 10/17/21 7/18/22 12/19/23 13/20/24
f 8/21/25 10/17/21 13/20/24 14/22/26
